<svg width="1155pt" height="1259pt"
 viewBox="0.00 0.00 1155.00 1259.00" xmlns="http://www.w3.org/2000/svg" xmlns:xlink="http://www.w3.org/1999/xlink">
<g id="05-memory-graph0" class="graph" transform="scale(1 1) rotate(0) translate(14.4 1245.04)">
<title>G</title>
<polygon fill="white" stroke="none" points="-14.4,14.4 -14.4,-1245.04 1140.98,-1245.04 1140.98,14.4 -14.4,14.4"/>
<!-- event&#45;&gt;record -->
<g id="05-memory-edge1" class="edge">
<title>event&#45;&gt;record</title>
<path fill="none" stroke="#6b7280" stroke-width="1.1" d="M671.88,-1177.89C671.88,-1164.7 671.88,-1148.44 671.88,-1134.18"/>
<polygon fill="#6b7280" stroke="#6b7280" stroke-width="1.1" points="674.33,-1134.28 671.88,-1127.28 669.43,-1134.28 674.33,-1134.28"/>
<text xml:space="preserve" text-anchor="middle" x="735.58" y="-1148.42" font-family="DejaVu Sans" font-size="11.00" fill="#374151">validated live evidence</text>
</g>
<!-- record&#45;&gt;recent -->
<g id="05-memory-edge2" class="edge">
<title>record&#45;&gt;recent</title>
<path fill="none" stroke="#6b7280" stroke-width="1.1" d="M671.88,-1072.37C671.88,-1059.18 671.88,-1042.92 671.88,-1028.66"/>
<polygon fill="#6b7280" stroke="#6b7280" stroke-width="1.1" points="674.33,-1028.76 671.88,-1021.76 669.43,-1028.76 674.33,-1028.76"/>
<text xml:space="preserve" text-anchor="middle" x="692.59" y="-1042.9" font-family="DejaVu Sans" font-size="11.00" fill="#374151">append</text>
</g>
<!-- recent&#45;&gt;staging -->
<g id="05-memory-edge3" class="edge">
<title>recent&#45;&gt;staging</title>
<path fill="none" stroke="#6b7280" stroke-width="1.1" d="M612.02,-966.83C588.2,-956.63 566.35,-947.28 566.35,-947.28 566.35,-947.28 548.7,-933.63 530.47,-919.54"/>
<polygon fill="#6b7280" stroke="#6b7280" stroke-width="1.1" points="532.11,-917.71 525.08,-915.37 529.12,-921.59 532.11,-917.71"/>
<text xml:space="preserve" text-anchor="middle" x="606.61" y="-937.38" font-family="DejaVu Sans" font-size="11.00" fill="#374151">oldest eviction</text>
</g>
<!-- recent&#45;&gt;protect -->
<g id="05-memory-edge9" class="edge">
<title>recent&#45;&gt;protect</title>
<path fill="none" stroke="#6b7280" stroke-width="1.1" d="M671.83,-966.96C671.81,-956.71 671.8,-947.28 671.8,-947.28 671.8,-947.28 671.8,-934.08 671.8,-934.08 671.8,-934.08 672.94,-887.34 673.83,-850.82"/>
<polygon fill="#6b7280" stroke="#6b7280" stroke-width="1.1" points="676.28,-850.99 674,-843.93 671.38,-850.87 676.28,-850.99"/>
<text xml:space="preserve" text-anchor="middle" x="747.84" y="-937.38" font-family="DejaVu Sans" font-size="11.00" fill="#374151">mark latest observed event</text>
</g>
<!-- recent&#45;&gt;read -->
<g id="05-memory-edge10" class="edge">
<title>recent&#45;&gt;read</title>
<path fill="none" stroke="#6b7280" stroke-width="1.1" d="M758.66,-966.83C793.19,-956.63 824.88,-947.28 824.88,-947.28 824.88,-947.28 839.88,-888.92 839.88,-888.92 839.88,-888.92 839.88,-888.92 839.88,-392.12 839.88,-392.12 791.32,-354.24 746.89,-319.58"/>
<polygon fill="#6b7280" stroke="#6b7280" stroke-width="1.1" points="748.43,-317.67 741.4,-315.3 745.42,-321.54 748.43,-317.67"/>
<text xml:space="preserve" text-anchor="middle" x="879.97" y="-600.86" font-family="DejaVu Sans" font-size="11.00" fill="#374151">recent records</text>
</g>
<!-- staging&#45;&gt;compress -->
<g id="05-memory-edge4" class="edge">
<title>staging&#45;&gt;compress</title>
<path fill="none" stroke="#6b7280" stroke-width="1.1" d="M420.67,-861.31C392.73,-851.11 367.1,-841.76 367.1,-841.76 367.1,-841.76 351.85,-796.37 339.9,-760.8"/>
<polygon fill="#6b7280" stroke="#6b7280" stroke-width="1.1" points="342.33,-760.36 337.78,-754.51 337.69,-761.92 342.33,-760.36"/>
<text xml:space="preserve" text-anchor="middle" x="430.49" y="-803.9" font-family="DejaVu Sans" font-size="11.00" fill="#374151">full chronological block</text>
</g>
<!-- staging&#45;&gt;read -->
<g id="05-memory-edge11" class="edge">
<title>staging&#45;&gt;read</title>
<path fill="none" stroke="#6b7280" stroke-width="1.1" d="M493.43,-861.54C499.42,-801.92 513.88,-657.92 513.88,-657.92 513.88,-657.92 513.88,-657.92 513.88,-392.12 513.88,-392.12 561.26,-354.24 604.61,-319.58"/>
<polygon fill="#6b7280" stroke="#6b7280" stroke-width="1.1" points="606.01,-321.6 609.95,-315.31 602.95,-317.77 606.01,-321.6"/>
<text xml:space="preserve" text-anchor="middle" x="579.68" y="-548.1" font-family="DejaVu Sans" font-size="11.00" fill="#374151">uncompressed overflow</text>
</g>
<!-- compress&#45;&gt;blocks -->
<g id="05-memory-edge5" class="edge">
<title>compress&#45;&gt;blocks</title>
<path fill="none" stroke="#6b7280" stroke-width="1.1" d="M325.88,-683.2C325.88,-669.24 325.88,-653.1 325.88,-639.13"/>
<polygon fill="#6b7280" stroke="#6b7280" stroke-width="1.1" points="328.33,-639.41 325.88,-632.41 323.43,-639.42 328.33,-639.41"/>
<text xml:space="preserve" text-anchor="middle" x="388.41" y="-653.62" font-family="DejaVu Sans" font-size="11.00" fill="#374151">two compressed views</text>
</g>
<!-- blocks&#45;&gt;consolidate -->
<g id="05-memory-edge6" class="edge">
<title>blocks&#45;&gt;consolidate</title>
<path fill="none" stroke="#6b7280" stroke-width="1.1" d="M290.77,-577.68C276.66,-567.43 263.67,-558 263.67,-558 263.67,-558 251.74,-545.06 239.12,-531.37"/>
<polygon fill="#6b7280" stroke="#6b7280" stroke-width="1.1" points="240.99,-529.78 234.44,-526.29 237.38,-533.1 240.99,-529.78"/>
<text xml:space="preserve" text-anchor="middle" x="320.27" y="-548.1" font-family="DejaVu Sans" font-size="11.00" fill="#374151">oldest block eviction</text>
</g>
<!-- blocks&#45;&gt;read -->
<g id="05-memory-edge12" class="edge">
<title>blocks&#45;&gt;read</title>
<path fill="none" stroke="#6b7280" stroke-width="1.1" d="M355.22,-577.68C367.02,-567.43 377.88,-558 377.88,-558 377.88,-558 392.49,-439.28 392.49,-439.28 392.49,-439.28 497.88,-333.76 497.88,-333.76 497.88,-333.76 515.3,-326.84 539.21,-317.33"/>
<polygon fill="#6b7280" stroke="#6b7280" stroke-width="1.1" points="540.04,-319.64 545.64,-314.78 538.23,-315.08 540.04,-319.64"/>
<text xml:space="preserve" text-anchor="middle" x="445.18" y="-442.58" font-family="DejaVu Sans" font-size="11.00" fill="#374151">compressed blocks</text>
</g>
<!-- consolidate&#45;&gt;long -->
<g id="05-memory-edge7" class="edge">
<title>consolidate&#45;&gt;long</title>
<path fill="none" stroke="#6b7280" stroke-width="1.1" d="M198.51,-472.16C193.95,-461.91 189.74,-452.48 189.74,-452.48 189.74,-452.48 187.98,-440.9 186.03,-428.06"/>
<polygon fill="#6b7280" stroke="#6b7280" stroke-width="1.1" points="188.46,-427.75 184.99,-421.19 183.62,-428.48 188.46,-427.75"/>
<text xml:space="preserve" text-anchor="middle" x="228.81" y="-442.58" font-family="DejaVu Sans" font-size="11.00" fill="#374151">new summary</text>
</g>
<!-- long&#45;&gt;consolidate -->
<g id="05-memory-edge8" class="edge">
<title>long&#45;&gt;consolidate</title>
<path fill="none" stroke="#6b7280" stroke-width="1.1" d="M230.79,-419.73C250.65,-429.93 268.88,-439.28 268.88,-439.28 268.88,-439.28 268.88,-452.48 268.88,-452.48 268.88,-452.48 260.43,-458.95 249.92,-466.99"/>
<polygon fill="#6b7280" stroke="#6b7280" stroke-width="1.1" points="248.56,-464.94 244.49,-471.14 251.54,-468.84 248.56,-464.94"/>
<text xml:space="preserve" text-anchor="middle" x="304.96" y="-442.58" font-family="DejaVu Sans" font-size="11.00" fill="#374151">old summary</text>
</g>
<!-- long&#45;&gt;read -->
<g id="05-memory-edge13" class="edge">
<title>long&#45;&gt;read</title>
<path fill="none" stroke="#6b7280" stroke-width="1.1" d="M202.5,-366.69C215.87,-350.97 230.49,-333.76 230.49,-333.76 230.49,-333.76 363.23,-312.74 483.61,-293.68"/>
<polygon fill="#6b7280" stroke="#6b7280" stroke-width="1.1" points="483.71,-296.15 490.24,-292.63 482.94,-291.31 483.71,-296.15"/>
<text xml:space="preserve" text-anchor="middle" x="303.69" y="-337.06" font-family="DejaVu Sans" font-size="11.00" fill="#374151">oldest summarized history</text>
</g>
<!-- protect&#45;&gt;read -->
<g id="05-memory-edge14" class="edge">
<title>protect&#45;&gt;read</title>
<path fill="none" stroke="#6b7280" stroke-width="1.1" d="M674.88,-772.18C674.88,-728.4 674.88,-657.92 674.88,-657.92 674.88,-657.92 674.88,-657.92 674.88,-392.12 674.88,-392.12 674.88,-356.54 674.88,-322.79"/>
<polygon fill="#6b7280" stroke="#6b7280" stroke-width="1.1" points="677.33,-322.94 674.88,-315.94 672.43,-322.94 677.33,-322.94"/>
<text xml:space="preserve" text-anchor="middle" x="737.94" y="-548.1" font-family="DejaVu Sans" font-size="11.00" fill="#374151">retained marked detail</text>
</g>
<!-- query&#45;&gt;read -->
<g id="05-memory-edge15" class="edge">
<title>query&#45;&gt;read</title>
<path fill="none" stroke="#6b7280" stroke-width="1.1" d="M933.95,-366.51C908.11,-356.31 884.41,-346.96 884.41,-346.96 884.41,-346.96 855.88,-333.76 855.88,-333.76 855.88,-333.76 837.91,-326.78 813.3,-317.21"/>
<polygon fill="#6b7280" stroke="#6b7280" stroke-width="1.1" points="814.42,-315.02 807.01,-314.76 812.65,-319.58 814.42,-315.02"/>
<text xml:space="preserve" text-anchor="middle" x="931.64" y="-337.06" font-family="DejaVu Sans" font-size="11.00" fill="#374151">attention queries</text>
</g>
<!-- query&#45;&gt;gate -->
<g id="05-memory-edge16" class="edge">
<title>query&#45;&gt;gate</title>
<path fill="none" stroke="#6b7280" stroke-width="1.1" d="M990.6,-366.69C985.48,-350.97 979.88,-333.76 979.88,-333.76 979.88,-333.76 896.88,-177.84 896.88,-177.84 896.88,-177.84 888.57,-171.37 878.24,-163.33"/>
<polygon fill="#6b7280" stroke="#6b7280" stroke-width="1.1" points="879.95,-161.55 872.92,-159.19 876.94,-165.42 879.95,-161.55"/>
<text xml:space="preserve" text-anchor="middle" x="1010.23" y="-259.1" font-family="DejaVu Sans" font-size="11.00" fill="#374151">mixing weights</text>
</g>
<!-- read&#45;&gt;gate -->
<g id="05-memory-edge17" class="edge">
<title>read&#45;&gt;gate</title>
<path fill="none" stroke="#6b7280" stroke-width="1.1" d="M739.7,-210.53C760.11,-194.5 782.01,-177.31 800.03,-163.17"/>
<polygon fill="#6b7280" stroke="#6b7280" stroke-width="1.1" points="801.17,-165.39 805.17,-159.14 798.15,-161.53 801.17,-165.39"/>
<text xml:space="preserve" text-anchor="middle" x="836.6" y="-181.14" font-family="DejaVu Sans" font-size="11.00" fill="#374151">three read residuals</text>
</g>
<!-- gate&#45;&gt;result -->
<g id="05-memory-edge18" class="edge">
<title>gate&#45;&gt;result</title>
<path fill="none" stroke="#6b7280" stroke-width="1.1" d="M838.88,-105.09C838.88,-91.9 838.88,-75.64 838.88,-61.38"/>
<polygon fill="#6b7280" stroke="#6b7280" stroke-width="1.1" points="841.33,-61.48 838.88,-54.48 836.43,-61.48 841.33,-61.48"/>
<text xml:space="preserve" text-anchor="middle" x="886.87" y="-75.62" font-family="DejaVu Sans" font-size="11.00" fill="#374151">weighted context</text>
</g>
<!-- event -->
<g id="05-memory-node1" class="node">
<title>event</title>
<path fill="#f3f4f6" stroke="#9098a4" stroke-width="1.1" d="M839.63,-1230.64C839.63,-1230.64 504.13,-1230.64 504.13,-1230.64 498.13,-1230.64 492.13,-1224.64 492.13,-1218.64 492.13,-1218.64 492.13,-1190.32 492.13,-1190.32 492.13,-1184.32 498.13,-1178.32 504.13,-1178.32 504.13,-1178.32 839.63,-1178.32 839.63,-1178.32 845.63,-1178.32 851.63,-1184.32 851.63,-1190.32 851.63,-1190.32 851.63,-1218.64 851.63,-1218.64 851.63,-1224.64 845.63,-1230.64 839.63,-1230.64"/>
<text xml:space="preserve" text-anchor="middle" x="671.88" y="-1208.68" font-family="DejaVu Sans" font-size="14.00">Committed observed event</text>
<text xml:space="preserve" text-anchor="middle" x="671.88" y="-1191.88" font-family="DejaVu Sans" font-size="14.00">Source features + inferred belief + provenance</text>
</g>
<!-- record -->
<g id="05-memory-node2" class="node">
<title>record</title>
<path fill="#f3f4f6" stroke="#9098a4" stroke-width="1.1" d="M797.52,-1125.12C797.52,-1125.12 546.23,-1125.12 546.23,-1125.12 540.23,-1125.12 534.23,-1119.12 534.23,-1113.12 534.23,-1113.12 534.23,-1084.8 534.23,-1084.8 534.23,-1078.8 540.23,-1072.8 546.23,-1072.8 546.23,-1072.8 797.52,-1072.8 797.52,-1072.8 803.52,-1072.8 809.52,-1078.8 809.52,-1084.8 809.52,-1084.8 809.52,-1113.12 809.52,-1113.12 809.52,-1119.12 803.52,-1125.12 797.52,-1125.12"/>
<text xml:space="preserve" text-anchor="middle" x="671.88" y="-1103.16" font-family="DejaVu Sans" font-size="14.00">Detached event record</text>
<text xml:space="preserve" text-anchor="middle" x="671.88" y="-1086.36" font-family="DejaVu Sans" font-size="14.00">Separate evidence and belief views</text>
</g>
<!-- recent -->
<g id="05-memory-node3" class="node">
<title>recent</title>
<path fill="#f3f4f6" stroke="#9098a4" stroke-width="1.1" d="M815.78,-1019.6C815.78,-1019.6 527.97,-1019.6 527.97,-1019.6 521.97,-1019.6 515.97,-1013.6 515.97,-1007.6 515.97,-1007.6 515.97,-979.28 515.97,-979.28 515.97,-973.28 521.97,-967.28 527.97,-967.28 527.97,-967.28 815.78,-967.28 815.78,-967.28 821.78,-967.28 827.78,-973.28 827.78,-979.28 827.78,-979.28 827.78,-1007.6 827.78,-1007.6 827.78,-1013.6 821.78,-1019.6 815.78,-1019.6"/>
<text xml:space="preserve" text-anchor="middle" x="671.88" y="-997.64" font-family="DejaVu Sans" font-size="14.00">Recent store</text>
<text xml:space="preserve" text-anchor="middle" x="671.88" y="-980.84" font-family="DejaVu Sans" font-size="14.00">32 records; exact stored latent envelope</text>
</g>
<!-- staging -->
<g id="05-memory-node4" class="node">
<title>staging</title>
<path fill="#f3f4f6" stroke="#9098a4" stroke-width="1.1" d="M628.41,-914.08C628.41,-914.08 353.34,-914.08 353.34,-914.08 347.34,-914.08 341.34,-908.08 341.34,-902.08 341.34,-902.08 341.34,-873.76 341.34,-873.76 341.34,-867.76 347.34,-861.76 353.34,-861.76 353.34,-861.76 628.41,-861.76 628.41,-861.76 634.41,-861.76 640.41,-867.76 640.41,-873.76 640.41,-873.76 640.41,-902.08 640.41,-902.08 640.41,-908.08 634.41,-914.08 628.41,-914.08"/>
<text xml:space="preserve" text-anchor="middle" x="490.88" y="-892.12" font-family="DejaVu Sans" font-size="14.00">Staging FIFO</text>
<text xml:space="preserve" text-anchor="middle" x="490.88" y="-875.32" font-family="DejaVu Sans" font-size="14.00">Up to 7 records waiting for a block of 8</text>
</g>
<!-- compress -->
<g id="05-memory-node5" class="node">
<title>compress</title>
<path fill="#e6eef8" stroke="#7696bc" stroke-width="1.1" d="M471.28,-752.64C471.28,-752.64 180.48,-752.64 180.48,-752.64 174.48,-752.64 168.48,-746.64 168.48,-740.64 168.48,-740.64 168.48,-695.52 168.48,-695.52 168.48,-689.52 174.48,-683.52 180.48,-683.52 180.48,-683.52 471.28,-683.52 471.28,-683.52 477.28,-683.52 483.28,-689.52 483.28,-695.52 483.28,-695.52 483.28,-740.64 483.28,-740.64 483.28,-746.64 477.28,-752.64 471.28,-752.64"/>
<text xml:space="preserve" text-anchor="middle" x="325.88" y="-730.68" font-family="DejaVu Sans" font-size="14.00">Two learned compressors</text>
<text xml:space="preserve" text-anchor="middle" x="325.88" y="-713.88" font-family="DejaVu Sans" font-size="14.00">Separate attention queries for evidence /</text>
<text xml:space="preserve" text-anchor="middle" x="325.88" y="-697.08" font-family="DejaVu Sans" font-size="14.00">belief</text>
</g>
<!-- blocks -->
<g id="05-memory-node6" class="node">
<title>blocks</title>
<path fill="#f3f4f6" stroke="#9098a4" stroke-width="1.1" d="M464,-630.32C464,-630.32 187.76,-630.32 187.76,-630.32 181.76,-630.32 175.76,-624.32 175.76,-618.32 175.76,-618.32 175.76,-590 175.76,-590 175.76,-584 181.76,-578 187.76,-578 187.76,-578 464,-578 464,-578 470,-578 476,-584 476,-590 476,-590 476,-618.32 476,-618.32 476,-624.32 470,-630.32 464,-630.32"/>
<text xml:space="preserve" text-anchor="middle" x="325.88" y="-608.36" font-family="DejaVu Sans" font-size="14.00">Compressed store</text>
<text xml:space="preserve" text-anchor="middle" x="325.88" y="-591.56" font-family="DejaVu Sans" font-size="14.00">16 blocks / 8 tokens per view per block</text>
</g>
<!-- consolidate -->
<g id="05-memory-node7" class="node">
<title>consolidate</title>
<path fill="#e6eef8" stroke="#7696bc" stroke-width="1.1" d="M333.82,-524.8C333.82,-524.8 85.93,-524.8 85.93,-524.8 79.93,-524.8 73.93,-518.8 73.93,-512.8 73.93,-512.8 73.93,-484.48 73.93,-484.48 73.93,-478.48 79.93,-472.48 85.93,-472.48 85.93,-472.48 333.82,-472.48 333.82,-472.48 339.82,-472.48 345.82,-478.48 345.82,-484.48 345.82,-484.48 345.82,-512.8 345.82,-512.8 345.82,-518.8 339.82,-524.8 333.82,-524.8"/>
<text xml:space="preserve" text-anchor="middle" x="209.88" y="-502.84" font-family="DejaVu Sans" font-size="14.00">Gated consolidation</text>
<text xml:space="preserve" text-anchor="middle" x="209.88" y="-486.04" font-family="DejaVu Sans" font-size="14.00">Old accumulator + departing block</text>
</g>
<!-- long -->
<g id="05-memory-node8" class="node">
<title>long</title>
<path fill="#f3f4f6" stroke="#9098a4" stroke-width="1.1" d="M349.76,-419.28C349.76,-419.28 12,-419.28 12,-419.28 6,-419.28 0,-413.28 0,-407.28 0,-407.28 0,-378.96 0,-378.96 0,-372.96 6,-366.96 12,-366.96 12,-366.96 349.76,-366.96 349.76,-366.96 355.76,-366.96 361.76,-372.96 361.76,-378.96 361.76,-378.96 361.76,-407.28 361.76,-407.28 361.76,-413.28 355.76,-419.28 349.76,-419.28"/>
<text xml:space="preserve" text-anchor="middle" x="180.88" y="-397.32" font-family="DejaVu Sans" font-size="14.00">Consolidated store</text>
<text xml:space="preserve" text-anchor="middle" x="180.88" y="-380.52" font-family="DejaVu Sans" font-size="14.00">8 tokens per view; bounded recurrent summary</text>
</g>
<!-- protect -->
<g id="05-memory-node9" class="node">
<title>protect</title>
<path fill="#f3f4f6" stroke="#9098a4" stroke-width="1.1" d="M812.18,-841.76C812.18,-841.76 537.58,-841.76 537.58,-841.76 531.58,-841.76 525.58,-835.76 525.58,-829.76 525.58,-829.76 525.58,-784.64 525.58,-784.64 525.58,-778.64 531.58,-772.64 537.58,-772.64 537.58,-772.64 812.18,-772.64 812.18,-772.64 818.18,-772.64 824.18,-778.64 824.18,-784.64 824.18,-784.64 824.18,-829.76 824.18,-829.76 824.18,-835.76 818.18,-841.76 812.18,-841.76"/>
<text xml:space="preserve" text-anchor="middle" x="674.88" y="-819.8" font-family="DejaVu Sans" font-size="14.00">Protected store</text>
<text xml:space="preserve" text-anchor="middle" x="674.88" y="-803" font-family="DejaVu Sans" font-size="14.00">8 marked records; user priority / agent</text>
<text xml:space="preserve" text-anchor="middle" x="674.88" y="-786.2" font-family="DejaVu Sans" font-size="14.00">utility</text>
</g>
<!-- query -->
<g id="05-memory-node10" class="node">
<title>query</title>
<path fill="#f3f4f6" stroke="#9098a4" stroke-width="1.1" d="M1114.58,-419.28C1114.58,-419.28 883.17,-419.28 883.17,-419.28 877.17,-419.28 871.17,-413.28 871.17,-407.28 871.17,-407.28 871.17,-378.96 871.17,-378.96 871.17,-372.96 877.17,-366.96 883.17,-366.96 883.17,-366.96 1114.58,-366.96 1114.58,-366.96 1120.58,-366.96 1126.58,-372.96 1126.58,-378.96 1126.58,-378.96 1126.58,-407.28 1126.58,-407.28 1126.58,-413.28 1120.58,-419.28 1114.58,-419.28"/>
<text xml:space="preserve" text-anchor="middle" x="998.88" y="-397.32" font-family="DejaVu Sans" font-size="14.00">Consumer query + current time</text>
<text xml:space="preserve" text-anchor="middle" x="998.88" y="-380.52" font-family="DejaVu Sans" font-size="14.00">Perception / prediction / thinking</text>
</g>
<!-- read -->
<g id="05-memory-node11" class="node">
<title>read</title>
<path fill="#e6eef8" stroke="#7696bc" stroke-width="1.1" d="M845.55,-313.76C845.55,-313.76 504.2,-313.76 504.2,-313.76 498.2,-313.76 492.2,-307.76 492.2,-301.76 492.2,-301.76 492.2,-223.04 492.2,-223.04 492.2,-217.04 498.2,-211.04 504.2,-211.04 504.2,-211.04 845.55,-211.04 845.55,-211.04 851.55,-211.04 857.55,-217.04 857.55,-223.04 857.55,-223.04 857.55,-301.76 857.55,-301.76 857.55,-307.76 851.55,-313.76 845.55,-313.76"/>
<text xml:space="preserve" text-anchor="middle" x="674.88" y="-291.8" font-family="DejaVu Sans" font-size="14.00">Three reader branches</text>
<text xml:space="preserve" text-anchor="middle" x="674.88" y="-275" font-family="DejaVu Sans" font-size="14.00">Recent + staging / compressed + consolidated /</text>
<text xml:space="preserve" text-anchor="middle" x="674.88" y="-258.2" font-family="DejaVu Sans" font-size="14.00">protected</text>
<text xml:space="preserve" text-anchor="middle" x="674.88" y="-241.4" font-family="DejaVu Sans" font-size="14.00">Add view identity and source/state ages &#45;&gt;</text>
<text xml:space="preserve" text-anchor="middle" x="674.88" y="-224.6" font-family="DejaVu Sans" font-size="14.00">attention</text>
</g>
<!-- gate -->
<g id="05-memory-node12" class="node">
<title>gate</title>
<path fill="#e6eef8" stroke="#7696bc" stroke-width="1.1" d="M955.6,-157.84C955.6,-157.84 722.15,-157.84 722.15,-157.84 716.15,-157.84 710.15,-151.84 710.15,-145.84 710.15,-145.84 710.15,-117.52 710.15,-117.52 710.15,-111.52 716.15,-105.52 722.15,-105.52 722.15,-105.52 955.6,-105.52 955.6,-105.52 961.6,-105.52 967.6,-111.52 967.6,-117.52 967.6,-117.52 967.6,-145.84 967.6,-145.84 967.6,-151.84 961.6,-157.84 955.6,-157.84"/>
<text xml:space="preserve" text-anchor="middle" x="838.88" y="-135.88" font-family="DejaVu Sans" font-size="14.00">Token&#45;wise softmax gate</text>
<text xml:space="preserve" text-anchor="middle" x="838.88" y="-119.08" font-family="DejaVu Sans" font-size="14.00">Mix 3 reads + no&#45;memory option</text>
</g>
<!-- result -->
<g id="05-memory-node13" class="node">
<title>result</title>
<path fill="#f3f4f6" stroke="#9098a4" stroke-width="1.1" d="M973.18,-52.32C973.18,-52.32 704.58,-52.32 704.58,-52.32 698.58,-52.32 692.58,-46.32 692.58,-40.32 692.58,-40.32 692.58,-12 692.58,-12 692.58,-6 698.58,0 704.58,0 704.58,0 973.18,0 973.18,0 979.18,0 985.18,-6 985.18,-12 985.18,-12 985.18,-40.32 985.18,-40.32 985.18,-46.32 979.18,-52.32 973.18,-52.32"/>
<text xml:space="preserve" text-anchor="middle" x="838.88" y="-30.36" font-family="DejaVu Sans" font-size="14.00">Memory context</text>
<text xml:space="preserve" text-anchor="middle" x="838.88" y="-13.56" font-family="DejaVu Sans" font-size="14.00">To correction, dynamics or workspace</text>
</g>
</g>
</svg>
